<?xml version="1.0" encoding="UTF-8"?>
<svg id="Capa_1" data-name="Capa 1" xmlns="http://www.w3.org/2000/svg" viewBox="105 280 875 455" role="img" aria-labelledby="logo-title">
  <title id="logo-title">AI15</title>
  <defs>
    <style>
      .cls-1 {
        fill: #cdaf6b;
      }

      .cls-2 {
        fill: #2f3332;
      }
    </style>
  </defs>
  <path class="cls-1" d="M436.4,671.44l-114.78-335.35c-.39-1.11-1.43-1.87-2.6-1.87h-57.05c-1.17,0-2.21.75-2.6,1.85l-115.25,335.36c-.61,1.78.71,3.65,2.6,3.65h36.88c1.18,0,2.24-.77,2.62-1.89l34.09-104.24c.38-1.13,1.43-1.89,2.62-1.89h135.14c1.18,0,2.24.77,2.62,1.89l34.09,104.24c.38,1.13,1.43,1.89,2.62,1.89h36.42c1.88,0,3.2-1.85,2.59-3.65ZM338.16,477.68c-.26,0-.52-.01-.78-.03l-1.87,14.44-5.79,44.74c-.17,1.36-1.34,2.39-2.73,2.39h-72.53c-1.39,0-2.56-1.03-2.73-2.39l-5.93-45.79-1.73-13.39c-.26.01-.52.03-.78.03-5.99,0-10.83-4.86-10.83-10.84s4.84-10.83,10.83-10.83,10.83,4.86,10.83,10.83c0,2.51-.85,4.82-2.28,6.65l13.49,13.84c1.43,1.48,3.93.9,4.58-1.04l16.15-48.4c-3.65-1.74-6.17-5.47-6.17-9.77,0-5.99,4.84-10.84,10.83-10.84s10.83,4.86,10.83,10.84c0,4.27-2.48,7.98-6.1,9.73l16.13,48.39c.65,1.95,3.15,2.52,4.58,1.04l13.29-13.63.14-.15c-1.43-1.84-2.28-4.15-2.28-6.65,0-5.97,4.84-10.83,10.83-10.83s10.83,4.86,10.83,10.83-4.84,10.84-10.83,10.84Z"/>
  <path class="cls-1" d="M505.95,334.23h-34.83c-1.53,0-2.76,1.23-2.76,2.76v335.35c0,1.53,1.23,2.76,2.76,2.76h34.83c1.53,0,2.76-1.23,2.76-2.76v-335.35c0-1.53-1.23-2.76-2.76-2.76Z"/>
  <path class="cls-2" d="M667.74,334.23h-26.77c-1.48,0-2.69,1.17-2.76,2.64l-1.75,44.5c-.01.25.01.49.07.72.13.57.43,1.09.89,1.48l.53.46c1.04.89,1.27,2.42.53,3.58l-6.92,10.73c-.28.45-.43.96-.43,1.49v272.5c0,1.53,1.23,2.76,2.76,2.76h33.86c1.53,0,2.76-1.23,2.76-2.76v-335.35c0-1.53-1.22-2.76-2.76-2.76ZM642.65,334.23h-2.52c-1.1,0-2.09.65-2.52,1.66-5.69,13.14-13.29,25.56-22.82,37.22-9.93,12.17-20.48,22.33-31.68,30.49-10.55,7.68-20.69,13.32-30.39,16.89-1.07.4-1.8,1.39-1.81,2.55l-.39,27.1c-.03,1.98,1.99,3.34,3.81,2.58,13.24-5.54,27.08-14.06,41.5-25.59,15.7-12.53,29.11-27.17,40.26-43.95.19-.31.35-.64.42-1v-.07s8.84-44.59,8.84-44.59c.33-1.7-.96-3.29-2.7-3.29Z"/>
  <path class="cls-2" d="M943.91,496.02c-6.89-17.6-18.01-30.4-33.37-38.41-15.37-7.99-35.85-11.83-61.46-11.53-19.52,0-36.72,3.37-51.6,10.09-14.23,6.42-24.29,14.45-30.18,24.08-.5.84-1.39,1.35-2.35,1.35-.77,0-1.45-.31-1.95-.81-.5-.5-.81-1.18-.81-1.95v-107.79c0-1.53,1.22-2.76,2.76-2.76h172.13c1.53,0,2.76-1.23,2.76-2.76v-28.57c0-1.53-1.23-2.76-2.76-2.76h-207.65c-1.53,0-2.76,1.23-2.76,2.76v191.33c0,1.53,1.23,2.76,2.76,2.76h31.36c1.36,0,2.49-1,2.71-2.34,2.64-15.9,10.52-28.8,23.65-38.71,13.77-10.4,32-15.61,54.74-15.61,17.6-.32,31.77,2.32,42.49,7.92,10.72,5.61,18.56,14.88,23.53,27.84,4.96,12.97,7.45,31.61,7.45,55.93,0,21.77-2.81,39.13-8.41,52.09-5.6,12.97-14,22.26-25.2,27.86-11.21,5.6-24.65,8.39-40.33,8.39-25.93,0-45.62-4.96-59.05-14.88-13.45-9.91-20.17-26.41-20.17-49.45,0-7.7.35-14.7,1.06-20.98.18-1.63-1.1-3.03-2.73-3.03h-34.15c-1.46,0-2.67,1.14-2.74,2.62-.22,4.29-.33,9.98-.33,17.07,0,21.45,4.09,39.45,12.25,54.01,8.16,14.57,20.71,25.77,37.68,33.6,16.97,7.85,39.2,11.76,66.74,11.76,25.6,0,46.82-4.08,63.62-12.24,16.8-8.16,29.44-20.88,37.92-38.17,8.48-17.28,12.72-39.37,12.72-66.25,0-30.72-3.44-54.89-10.32-72.5Z"/>
</svg>
